<?xml version="1.0" encoding="UTF-8"?><svg id="Calque_2" xmlns="http://www.w3.org/2000/svg" xmlns:xlink="http://www.w3.org/1999/xlink" viewBox="0 0 1170.53 158.76"><defs><style>.cls-1{fill:#ffc300;}</style><symbol id="Logo" viewBox="0 0 1170.53 158.76"><path d="m0,156.03V9.03h87.57c7.7,0,14.66,1.65,20.9,4.94,6.23,3.29,11.23,7.88,15.01,13.75,3.78,5.88,5.67,12.81,5.67,20.79,0,4.34-.84,8.5-2.52,12.5-1.68,3.99-3.92,7.56-6.72,10.71-2.8,3.15-6.16,5.85-10.08,8.08,4.62,2.1,8.64,4.97,12.08,8.61,3.43,3.64,6.09,7.77,7.98,12.39,1.89,4.62,2.83,9.52,2.83,14.7,0,8.12-1.93,15.22-5.77,21.31-3.85,6.09-9,10.81-15.44,14.17-6.44,3.36-13.58,5.04-21.42,5.04H0Zm40.11-89.25h35.91c2.38,0,4.52-.59,6.41-1.79,1.89-1.19,3.36-2.76,4.41-4.72,1.05-1.96,1.58-4.06,1.58-6.3s-.52-4.31-1.58-6.19c-1.05-1.89-2.49-3.39-4.3-4.52-1.82-1.12-3.99-1.68-6.51-1.68h-35.91v25.2Zm0,57.54h40.32c2.66,0,4.94-.59,6.82-1.79,1.89-1.19,3.39-2.83,4.52-4.94,1.12-2.1,1.68-4.41,1.68-6.93s-.56-4.76-1.68-6.72c-1.12-1.96-2.62-3.53-4.52-4.73-1.89-1.19-4.17-1.78-6.82-1.78h-40.32v26.88Z"/><path d="m149.52,156.03v-75.6c0-10.08,2.9-18.02,8.71-23.83s13.89-8.71,24.25-8.71h33.18v28.56h-22.05c-2.24,0-4.06.7-5.46,2.1-1.4,1.4-2.1,3.22-2.1,5.46v72.03h-36.54Z"/><path d="m273.42,158.76c-9.38,0-17.71-2.38-24.99-7.14-7.28-4.76-12.99-11.3-17.11-19.63-4.13-8.33-6.19-17.81-6.19-28.46,0-11.2,2.48-21.21,7.45-30.03,4.97-8.82,11.93-15.71,20.9-20.69,8.96-4.97,19.53-7.46,31.71-7.46s22.16,2.45,30.77,7.35c8.61,4.9,15.29,11.62,20.06,20.16,4.76,8.54,7.14,18.34,7.14,29.4v53.76h-35.07v-16.8h-.84c-1.96,3.78-4.48,7.14-7.56,10.08-3.08,2.94-6.76,5.25-11.02,6.93-4.27,1.68-9.35,2.52-15.23,2.52Zm10.92-31.71c4.48,0,8.33-1.08,11.55-3.25,3.22-2.17,5.74-5.15,7.56-8.93,1.82-3.78,2.73-8.05,2.73-12.81s-.91-8.92-2.73-12.49c-1.82-3.57-4.34-6.44-7.56-8.61-3.22-2.17-7.07-3.25-11.55-3.25s-8.16,1.09-11.44,3.25c-3.29,2.17-5.85,5.04-7.67,8.61-1.82,3.57-2.73,7.74-2.73,12.49s.91,9.03,2.73,12.81c1.82,3.78,4.37,6.76,7.67,8.93,3.29,2.17,7.1,3.25,11.44,3.25Z"/><path d="m364.35,156.03v-62.16c0-9.24,2.27-17.53,6.83-24.88,4.55-7.35,10.99-13.12,19.32-17.33,8.33-4.2,18.09-6.3,29.29-6.3s20.86,2.1,28.98,6.3c8.12,4.2,14.35,9.98,18.69,17.33,4.34,7.35,6.51,15.65,6.51,24.88v62.16h-36.54v-60.48c0-3.22-.77-6.19-2.31-8.92-1.54-2.73-3.67-4.94-6.4-6.62-2.73-1.68-5.92-2.52-9.56-2.52s-6.69.84-9.56,2.52c-2.87,1.68-5.08,3.89-6.61,6.62-1.54,2.73-2.31,5.71-2.31,8.92v60.48h-36.33Z"/><path d="m550.19,158.76c-9.1,0-17.26-1.44-24.47-4.31-7.21-2.87-13.41-6.93-18.58-12.18-5.18-5.25-9.13-11.41-11.86-18.48-2.73-7.07-4.1-14.94-4.1-23.62,0-10.92,2.24-20.48,6.72-28.67,4.48-8.19,10.6-14.6,18.38-19.22,7.77-4.62,16.62-6.93,26.56-6.93,4.06,0,7.88.46,11.45,1.36,3.57.91,6.86,2.31,9.87,4.2,3.01,1.89,5.56,4.24,7.67,7.04h.84V2.73h36.54v97.23c0,11.9-2.45,22.23-7.35,30.97-4.9,8.75-11.76,15.58-20.58,20.48-8.82,4.9-19.18,7.35-31.08,7.35Zm0-31.71c4.48,0,8.33-1.08,11.55-3.25,3.22-2.17,5.74-5.15,7.56-8.93,1.82-3.78,2.73-8.05,2.73-12.81s-.91-8.75-2.73-12.39c-1.82-3.64-4.34-6.54-7.56-8.72-3.22-2.17-7.07-3.25-11.55-3.25s-8.16,1.09-11.45,3.25c-3.29,2.17-5.85,5.08-7.67,8.72-1.82,3.64-2.73,7.77-2.73,12.39s.91,9.03,2.73,12.81c1.82,3.78,4.37,6.76,7.67,8.93,3.29,2.17,7.1,3.25,11.45,3.25Z"/><path d="m761.24,156.03c-12.6,0-23.87-1.82-33.81-5.46-9.94-3.64-18.41-8.75-25.41-15.33-7-6.58-12.36-14.35-16.06-23.31-3.71-8.96-5.57-18.76-5.57-29.4s1.85-20.44,5.57-29.4c3.71-8.96,9.06-16.73,16.06-23.31,7-6.58,15.47-11.69,25.41-15.33,9.94-3.64,21.21-5.46,33.81-5.46h22.47v32.55h-21.21c-6.58,0-12.43,1.05-17.54,3.15-5.11,2.1-9.42,5.01-12.92,8.71-3.5,3.71-6.16,8.05-7.98,13.02-1.82,4.97-2.73,10.33-2.73,16.06s.91,11.13,2.73,16.17c1.82,5.04,4.48,9.38,7.98,13.02,3.5,3.64,7.8,6.51,12.92,8.61,5.11,2.1,10.95,3.15,17.54,3.15h21.21v32.55h-22.47Z"/><path d="m986.99,158.76c-9.1,0-17.26-1.44-24.47-4.31-7.21-2.87-13.41-6.93-18.58-12.18-5.18-5.25-9.13-11.41-11.86-18.48-2.73-7.07-4.1-14.94-4.1-23.62,0-10.92,2.24-20.48,6.72-28.67,4.48-8.19,10.6-14.6,18.38-19.22,7.77-4.62,16.62-6.93,26.56-6.93,4.06,0,7.88.46,11.45,1.36,3.57.91,6.86,2.31,9.87,4.2,3.01,1.89,5.56,4.24,7.67,7.04h.84V2.73h36.54v97.23c0,11.9-2.45,22.23-7.35,30.97-4.9,8.75-11.76,15.58-20.58,20.48-8.82,4.9-19.18,7.35-31.08,7.35Zm0-31.71c4.48,0,8.33-1.08,11.55-3.25,3.22-2.17,5.74-5.15,7.56-8.93,1.82-3.78,2.73-8.05,2.73-12.81s-.91-8.75-2.73-12.39c-1.82-3.64-4.34-6.54-7.56-8.72-3.22-2.17-7.07-3.25-11.55-3.25s-8.16,1.09-11.45,3.25c-3.29,2.17-5.85,5.08-7.67,8.72-1.82,3.64-2.73,7.77-2.73,12.39s.91,9.03,2.73,12.81c1.82,3.78,4.37,6.76,7.67,8.93,3.29,2.17,7.1,3.25,11.45,3.25Z"/><path d="m1124.96,156.03c-12.18,0-22.93-2.17-32.23-6.51-9.31-4.34-16.66-10.57-22.05-18.69-5.39-8.12-8.08-17.71-8.08-28.77,0-12.32,2.59-22.68,7.77-31.08,5.18-8.4,12.04-14.77,20.58-19.11,8.54-4.34,17.71-6.51,27.51-6.51,10.64,0,19.84,2.21,27.62,6.61,7.77,4.41,13.79,10.6,18.06,18.58,4.27,7.98,6.41,17.29,6.41,27.93,0,2.24-.11,4.8-.32,7.67-.21,2.87-.6,5.29-1.15,7.25h-68.67c.84,3.08,2.21,5.64,4.1,7.67,1.89,2.03,4.41,3.54,7.56,4.51,3.15.98,6.75,1.47,10.82,1.47h35.7v28.98h-33.6Zm-25.83-63.84h36.96c0-2.1-.28-4.02-.84-5.78-.56-1.75-1.33-3.39-2.31-4.93-.98-1.54-2.17-2.87-3.57-3.99-1.4-1.12-3.08-1.96-5.04-2.52-1.96-.56-4.06-.84-6.3-.84-2.94,0-5.53.49-7.77,1.47-2.24.98-4.13,2.28-5.67,3.89-1.54,1.61-2.77,3.5-3.67,5.67-.91,2.17-1.51,4.52-1.79,7.04Z"/><path class="cls-1" d="m899.17,72.28h-71.41v-32.37c0-15.28,12.59-27.72,28.08-27.72.15,0,.29,0,.44,0,15.41.23,27.65,12.92,27.65,28.14v14.89c0,1.23,1.01,2.22,2.25,2.22h8.57c1.24,0,2.25-.99,2.25-2.22v-14.1c0-22.39-18.15-40.95-40.84-41.13h-.32c-22.72,0-41.15,18.18-41.15,40.61v31.67h-2.18c-.67,0-1.33.06-1.98.17-5.5.92-9.68,5.65-9.68,11.34v21.96c0,27.77,22.81,50.28,50.94,50.28h8.08c28.13,0,50.94-22.51,50.94-50.28v-21.96c0-6.35-5.22-11.5-11.65-11.5Zm-37.25,54.18c0,.09,0,.18-.02.27-.2,2.94-2.58,5.34-5.63,5.56-.15,0-.3.02-.44.02-3.16,0-5.83-2.42-6.05-5.58v-12.4c-2.61-1.86-4.3-4.88-4.3-8.3,0-5.65,4.64-10.23,10.37-10.23s10.37,4.58,10.37,10.23c0,3.41-1.69,6.43-4.29,8.29v12.14Z"/></symbol></defs><g id="_1_500xA0_1_500_px_Logo_6"><g id="Texte"><use width="1170.53" height="158.76" xlink:href="#Logo"/></g></g></svg>